<?xml version="1.0" encoding="UTF-8" standalone="no"?>
<svg
   xmlns:dc="http://purl.org/dc/elements/1.1/"
   xmlns:cc="http://creativecommons.org/ns#"
   xmlns:rdf="http://www.w3.org/1999/02/22-rdf-syntax-ns#"
   xmlns:svg="http://www.w3.org/2000/svg"
   xmlns="http://www.w3.org/2000/svg"
   viewBox="0 0 128 128"
   height="128"
   width="128"
   xml:space="preserve"
   id="svg2"
   version="1.1"><metadata
     id="metadata8"><rdf:RDF><cc:Work
         rdf:about=""><dc:format>image/svg+xml</dc:format><dc:type
           rdf:resource="http://purl.org/dc/dcmitype/StillImage" /></cc:Work></rdf:RDF></metadata><defs
     id="defs6"><clipPath
       id="clipPath20"
       clipPathUnits="userSpaceOnUse"><path
         id="path18"
         d="M 33.18,31.219 H 62.571 V 64.531 H 33.18 Z" /></clipPath><clipPath
       id="clipPath30"
       clipPathUnits="userSpaceOnUse"><path
         id="path28"
         d="m 9.375,9.375 h 77 v 77 h -77 z" /></clipPath></defs><g
     transform="matrix(1.3333333,0,0,1.3333333,0,3.2e-6)"
     id="g10"><g
       id="g12" /><g
       id="g14"><g
         clip-path="url(#clipPath20)"
         id="g16"><path
           id="path22"
           style="fill:#dddddd;fill-opacity:1;fill-rule:nonzero;stroke:none"
           d="M 39.059,64.531 H 33.18 V 31.879 h 5.453 v 5.266 c 1.191,-1.922 2.738,-3.391 4.64,-4.403 1.915,-1.015 3.977,-1.523 6.192,-1.523 2.32,0 4.469,0.57 6.445,1.711 1.973,1.148 3.578,2.8 4.813,4.953 1.23,2.164 1.847,4.785 1.847,7.867 V 64.531 H 56.691 V 46.566 c 0,-2.57 -0.765,-4.847 -2.304,-6.836 -1.543,-1.972 -3.715,-2.96 -6.504,-2.96 -2.289,0 -4.332,0.824 -6.129,2.476 -1.797,1.652 -2.695,4.039 -2.695,7.164 z" /></g></g><g
       id="g24"><g
         clip-path="url(#clipPath30)"
         id="g26"><path
           id="path32"
           style="fill:#dddddd;fill-opacity:1;fill-rule:nonzero;stroke:none"
           d="m 9.375,86.375 v -77 h 77 v 77 z M 83.371,83.371 V 12.379 H 12.379 v 70.992 z" /></g></g></g></svg>