<?xml version="1.0" encoding="UTF-8" standalone="no"?>
<svg
   xmlns:dc="http://purl.org/dc/elements/1.1/"
   xmlns:cc="http://creativecommons.org/ns#"
   xmlns:rdf="http://www.w3.org/1999/02/22-rdf-syntax-ns#"
   xmlns:svg="http://www.w3.org/2000/svg"
   xmlns="http://www.w3.org/2000/svg"
   viewBox="0 0 2000 1252"
   height="1252"
   width="2000"
   xml:space="preserve"
   id="svg2"
   version="1.1"><metadata
     id="metadata8"><rdf:RDF><cc:Work
         rdf:about=""><dc:format>image/svg+xml</dc:format><dc:type
           rdf:resource="http://purl.org/dc/dcmitype/StillImage" /></cc:Work></rdf:RDF></metadata><defs
     id="defs6"><clipPath
       id="clipPath20"
       clipPathUnits="userSpaceOnUse"><path
         id="path18"
         d="M 150.07,281.246 H 1348.113 V 654.723 H 150.07 Z" /></clipPath><clipPath
       id="clipPath30"
       clipPathUnits="userSpaceOnUse"><path
         id="path28"
         d="M 0.312,0 H 1497.867 V 935.973 H 0.312 Z" /></clipPath></defs><g
     transform="matrix(1.3333333,0,0,1.3333333,0,3.13e-5)"
     id="g10"><g
       id="g12" /><g
       id="g14"><g
         clip-path="url(#clipPath20)"
         id="g16"><path
           id="path22"
           style="fill:#000000;fill-opacity:1;fill-rule:nonzero;stroke:none"
           d="m 191.645,650.074 h -41.5 V 419.57 h 38.511 v 37.184 c 8.41,-13.574 19.328,-23.942 32.754,-31.094 13.5,-7.156 28.07,-10.734 43.711,-10.734 16.379,0 31.539,4.019 45.481,12.058 13.945,8.118 25.269,19.774 33.972,34.969 8.707,15.274 13.059,33.789 13.059,55.551 v 132.57 H 316.137 V 523.262 c 0,-18.149 -5.422,-34.235 -16.27,-48.25 -10.918,-13.942 -26.226,-20.914 -45.922,-20.914 -16.156,0 -30.578,5.828 -43.269,17.484 -12.688,11.656 -19.031,28.512 -19.031,50.57 z m 276.648,0 H 426.797 V 419.57 h 41.496 z m -20.695,-272 c -7.746,0 -14.313,-2.691 -19.696,-8.078 -5.312,-5.387 -7.968,-11.914 -7.968,-19.586 0,-7.969 2.656,-14.57 7.968,-19.808 5.383,-5.239 11.95,-7.856 19.696,-7.856 7.894,0 14.461,2.617 19.699,7.856 5.312,5.238 7.969,11.839 7.969,19.808 0,7.672 -2.657,14.199 -7.969,19.586 -5.238,5.387 -11.805,8.078 -19.699,8.078 z m 154.039,276.649 c -11.805,0 -24.418,-2.25 -37.844,-6.75 -13.5,-4.5 -25.121,-11.989 -34.859,-22.465 l 11.621,-45.367 c 7.156,12.023 16.375,21.578 27.664,28.66 11.211,7.008 23.238,10.511 36.074,10.511 12.32,0 21.543,-2.988 27.664,-8.964 6.125,-6.047 9.184,-13.426 9.184,-22.129 0,-9.961 -3.243,-17.266 -9.735,-21.914 -6.566,-4.571 -12.394,-7.782 -17.484,-9.625 l -31.098,-11.84 c -5.679,-2.363 -12.469,-5.754 -20.359,-10.184 -7.969,-4.5 -14.903,-10.992 -20.805,-19.472 -5.902,-8.411 -8.851,-19.403 -8.851,-32.977 0,-12.32 2.949,-23.609 8.851,-33.863 5.902,-10.254 14.238,-18.371 25.008,-24.344 10.773,-6.051 23.422,-9.074 37.957,-9.074 11.582,0 23.645,2.062 36.187,6.195 12.54,4.059 23.165,10.957 31.868,20.695 l -11.508,45.368 c -6.125,-11.286 -14.461,-20.25 -25.008,-26.891 -10.476,-6.711 -21.359,-10.066 -32.644,-10.066 -10.477,0 -18.739,2.949 -24.79,8.851 -5.976,5.902 -8.964,12.688 -8.964,20.36 0,6.199 2.031,11.73 6.086,16.601 4.132,4.867 10.293,8.816 18.48,11.84 l 31.098,11.949 c 5.605,2.067 12.578,5.387 20.914,9.961 8.336,4.649 15.715,11.324 22.133,20.027 6.418,8.707 9.625,20.473 9.625,35.301 0,20.731 -7.266,37.516 -21.797,50.352 -14.461,12.836 -32.684,19.254 -54.668,19.254 z m 177.832,-4.649 h -41.5 V 281.246 h 41.5 v 170.969 c 8.703,-12.024 19.472,-21.246 32.312,-27.664 12.762,-6.418 26.446,-9.625 41.055,-9.625 16.449,0 31.648,4.019 45.59,12.058 13.941,8.118 25.265,19.774 33.972,34.969 8.707,15.274 13.059,33.789 13.059,55.551 v 132.57 h -41.5 V 523.262 c 0,-18.149 -5.422,-34.235 -16.266,-48.25 -10.918,-13.942 -26.226,-20.914 -45.921,-20.914 -16.157,0 -30.582,5.828 -43.27,17.484 -12.688,11.656 -19.031,28.512 -19.031,50.57 z m 333.859,3.102 c -21.027,0 -40.246,-5.313 -57.656,-15.938 -17.41,-10.621 -31.277,-24.898 -41.606,-42.824 -10.402,-18 -15.605,-37.883 -15.605,-59.644 0,-21.766 5.203,-41.61 15.605,-59.536 10.329,-17.925 24.196,-32.203 41.606,-42.824 17.41,-10.625 36.629,-15.937 57.656,-15.937 15.86,0 30.797,2.953 44.817,8.855 13.941,5.899 26.043,14.09 36.296,24.567 V 419.57 h 38.399 v 230.504 h -38.399 v -30.32 c -10.253,10.254 -22.355,18.371 -36.296,24.348 -14.02,6.046 -28.957,9.074 -44.817,9.074 z m 5.422,-37.738 c 14.605,0 27.848,-3.614 39.727,-10.844 11.949,-7.301 21.429,-17.039 28.437,-29.215 7.082,-12.172 10.625,-25.707 10.625,-40.609 0,-14.829 -3.543,-28.329 -10.625,-40.504 -7.008,-12.172 -16.488,-21.911 -28.437,-29.211 -11.879,-7.305 -25.122,-10.957 -39.727,-10.957 -14.609,0 -27.887,3.652 -39.84,10.957 -11.875,7.3 -21.355,17.039 -28.437,29.211 -7.008,12.175 -10.512,25.675 -10.512,40.504 0,14.902 3.504,28.437 10.512,40.609 7.082,12.176 16.562,21.914 28.437,29.215 11.953,7.23 25.231,10.844 39.84,10.844 z m 229.285,34.636 h -41.496 V 281.246 h 41.496 z" /></g></g><g
       id="g24"><g
         clip-path="url(#clipPath30)"
         id="g26"><path
           id="path32"
           style="fill:#000000;fill-opacity:1;fill-rule:nonzero;stroke:none"
           d="M 0.312,935.973 V 0 h 1497.555 v 935.973 z m 1463.876,-33.68 V 33.68 H 33.992 v 868.613 z" /></g></g></g></svg>